{"title":"Gangs of New York*2002*[BluRay][720p][ENG, POL]","uid":5868957,"size":8807351876,"categoryP":"video","categoryS":"hd___movies","magnet":"?xt=urn:btih:f95d13067a8d623618ab683f0f46b6fec0cf8a7b&amp;dn=Gangs+of+New+York%2A2002%2A%5BBluRay%5D%5B720p%5D%5BENG%2C+POL%5D&amp;tr=udp%3A%2F%2Ftracker.openbittorrent.com%3A80&amp;tr=udp%3A%2F%2Fopen.demonii.com%3A1337&amp;tr=udp%3A%2F%2Ftracker.coppersurfer.tk%3A6969&amp;tr=udp%3A%2F%2Fexodus.desync.com%3A6969","seeders":0,"leechers":1,"uploader":"albedo040","files":1,"time":1286388954,"description":"Gangs of New York*2002*[BluRay][720p][ENG, POL]\n\nGeneral information:\nCountry: USA, Italy \nRelease: 9 December 2002\nGenre: Crime, Drama, History \nDirector: Martin Scorsese\nScreenplay: Jay Cocks, Kenneth Lonergan, Martin Scorsese\nOriginal Music: Elmer Bernstein\nCinematography by: Michael Ballhaus\nDuration: 2h 46mn\nLanguage: English, Polish \nSubtitles: English, Polish \nRating: 7.1/10 - 24507 votes\n\nCast:\nLeonardo DiCaprio  ...  Amsterdam Vallon  \nDaniel Day-Lewis  ...  Bill 'The Butcher' Cutting  \nCameron Diaz  ...  Jenny Everdeane  \nJim Broadbent  ...  William 'Boss' Tweed  \nJohn C. Reilly  ...  Happy Jack Mulraney  \nHenry Thomas  ...  Johnny Sirocco  \nLiam Neeson  ...  'Priest' Vallon  \nBrendan Gleeson  ...  Walter 'Monk' McGinn  \nGary Lewis  ...  McGloin  \nStephen Graham  ...  Shang  \nEddie Marsan  ...  Killoran  \nAlec McCowen  ...  Reverend Raleigh (as Alec Mccowen)  \nDavid Hemmings  ...  Mr. Schermerhorn  \nLarry Gilliard Jr.  ...  Jimmy Spoils  \nCara Seymour  ...  Hell-Cat Maggie  \n\nPlot:\nIn 1863, Amsterdam Vallon returns to the Five Points area of New York City seeking revenge against Bill the Butcher, his father's killer.\n\nSpecifications:\nGeneral\nFormat                           : Matroska\nOverall bit rate                 : 7 045 Kbps\n\nVideo\nFormat                           : AVC\nFormat/Info                      : Advanced Video Codec\nFormat profile                   : &lt;a class=&quot;__cf_email__&quot; href=&quot;/cdn-cgi/l/email-protection&quot; data-cfemail=&quot;652d0c020d2529504b54&quot;&gt;[email&amp;#160;protected]&lt;/a&gt;&lt;script cf-hash='f9e31' type=&quot;text/javascript&quot;&gt;\n/* &lt;![CDATA[ */!function(){try{var t=&quot;currentScript&quot;in document?document.currentScript:function(){for(var t=document.getElementsByTagName(&quot;script&quot;),e=t.length;e--;)if(t[e].getAttribute(&quot;cf-hash&quot;))return t[e]}();if(t&amp;&amp;t.previousSibling){var e,r,n,i,c=t.previousSibling,a=c.getAttribute(&quot;data-cfemail&quot;);if(a){for(e=&quot;&quot;,r=parseInt(a.substr(0,2),16),n=2;a.length-n;n+=2)i=parseInt(a.substr(n,2),16)^r,e+=String.fromCharCode(i);e=document.createTextNode(e),c.parentNode.replaceChild(e,c)}}}catch(u){}}();/* ]]&gt; */&lt;/script&gt;\nFormat settings, CABAC           : Yes\nFormat settings, ReFrames        : 8 frames\nMuxing mode                      : Container profile=&lt;a class=&quot;__cf_email__&quot; href=&quot;/cdn-cgi/l/email-protection&quot; data-cfemail=&quot;2f7a4144414058416f1a011e&quot;&gt;[email&amp;#160;protected]&lt;/a&gt;&lt;script cf-hash='f9e31' type=&quot;text/javascript&quot;&gt;\n/* &lt;![CDATA[ */!function(){try{var t=&quot;currentScript&quot;in document?document.currentScript:function(){for(var t=document.getElementsByTagName(&quot;script&quot;),e=t.length;e--;)if(t[e].getAttribute(&quot;cf-hash&quot;))return t[e]}();if(t&amp;&amp;t.previousSibling){var e,r,n,i,c=t.previousSibling,a=c.getAttribute(&quot;data-cfemail&quot;);if(a){for(e=&quot;&quot;,r=parseInt(a.substr(0,2),16),n=2;a.length-n;n+=2)i=parseInt(a.substr(n,2),16)^r,e+=String.fromCharCode(i);e=document.createTextNode(e),c.parentNode.replaceChild(e,c)}}}catch(u){}}();/* ]]&gt; */&lt;/script&gt;\nCodec ID                         : V_MPEG4/ISO/AVC\nBit rate                         : 5 317 Kbps\nWidth                            : 1 280 pixels\nHeight                           : 544 pixels\nDisplay aspect ratio             : 2.35:1\nFrame rate                       : 23.976 fps\n\nAudio 1\nFormat                           : DTS\nFormat/Info                      : Digital Theater Systems\nCodec ID                         : A_DTS\nBit rate mode                    : Constant\nBit rate                         : 1 510 Kbps\nChannel(s)                       : 6 channels\nChannel positions                : Front: L C R, Side: L R, LFE\nSampling rate                    : 48.0 KHz\nBit depth                        : 16 bits\nStream size                      : 1.76 GiB (21%)\nTitle                            : English_A\n\nAudio 2\nFormat                           : AC-3\nFormat/Info                      : Audio Coding 3\nMode extension                   : CM (complete main)\nCodec ID                         : A_AC3\nBit rate mode                    : Constant\nBit rate                         : 224 Kbps\nChannel(s)                       : 2 channels\nChannel positions                : Front: L R\nSampling rate                    : 48.0 KHz\nStream size                      : 267 MiB (3%)\nLanguage                         : Polish\n\nText 1\nFormat                           : UTF-8\nCodec ID                         : S_TEXT/UTF8\nCodec ID/Info                    : UTF-8 Plain Text\nTitle                            : English_SUB\n\nText 2\nFormat                           : UTF-8\nCodec ID                         : S_TEXT/UTF8\nCodec ID/Info                    : UTF-8 Plain Text\nLanguage                         : Polish\n","torrent":{"xt":"urn:btih:f95d13067a8d623618ab683f0f46b6fec0cf8a7b","amp;dn":"Gangs+of+New+York%2A2002%2A%5BBluRay%5D%5B720p%5D%5BENG%2C+POL%5D","amp;tr":["udp%3A%2F%2Ftracker.openbittorrent.com%3A80","udp%3A%2F%2Fopen.demonii.com%3A1337","udp%3A%2F%2Ftracker.coppersurfer.tk%3A6969","udp%3A%2F%2Fexodus.desync.com%3A6969"],"infoHash":"f95d13067a8d623618ab683f0f46b6fec0cf8a7b","infoHashBuffer":{"type":"Buffer","data":[249,93,19,6,122,141,98,54,24,171,104,63,15,70,182,254,192,207,138,123]},"announce":[],"urlList":[]}}